<svg width="178" height="41" viewBox="0 0 178 41" fill="none" xmlns="http://www.w3.org/2000/svg">
<path d="M19.4023 3.6424C19.0634 4.60927 18.989 5.64917 19.1869 6.65445C19.3848 7.65972 19.8478 8.59383 20.5279 9.36008L17.1645 12.7235C16.3403 11.9884 15.3211 11.5073 14.2296 11.3385C13.1382 11.1696 12.0212 11.3202 11.0134 11.7719C10.0057 12.2237 9.1501 12.9574 8.54996 13.8845C7.94983 14.8116 7.63074 15.8926 7.63121 16.997V24.1494C7.63095 24.9638 7.79115 25.7702 8.10263 26.5227C8.41412 27.2752 8.87079 27.9589 9.44657 28.5349C10.0224 29.1109 10.706 29.5677 11.4583 29.8795C12.2107 30.1912 13.0172 30.3516 13.8316 30.3516H20.9858C22.0899 30.3517 23.1704 30.0326 24.0971 29.4325C25.0239 28.8325 25.7573 27.9772 26.209 26.9698C26.6607 25.9623 26.8114 24.8458 26.6428 23.7547C26.4743 22.6635 25.9938 21.6445 25.2593 20.8202L28.6246 17.453C29.3892 18.136 30.3234 18.6008 31.3293 18.7989C32.3353 18.9969 33.3759 18.9208 34.3423 18.5786L34.3385 34.1672C34.3385 35.1792 33.9365 36.1497 33.221 36.8653C32.5054 37.5808 31.5349 37.9828 30.5229 37.9828H3.8156C2.80364 37.9828 1.83313 37.5808 1.11756 36.8653C0.402 36.1497 0 35.1792 0 34.1672V7.458C0 6.44604 0.402 5.47552 1.11756 4.75996C1.83313 4.04439 2.80364 3.6424 3.8156 3.6424H19.4023ZM31.9557 3.6424C33.2721 3.6424 34.3404 4.71076 34.3404 6.02715V13.1814C34.3404 13.6874 34.1394 14.1726 33.7816 14.5304C33.4239 14.8882 32.9386 15.0892 32.4326 15.0892C31.9266 15.0892 31.4414 14.8882 31.0836 14.5304C30.7258 14.1726 30.5248 13.6874 30.5248 13.1814V10.1556L17.96 22.7204H20.9858C21.4918 22.7204 21.9771 22.9214 22.3348 23.2792C22.6926 23.637 22.8936 24.1222 22.8936 24.6282C22.8936 25.1342 22.6926 25.6194 22.3348 25.9772C21.9771 26.335 21.4918 26.536 20.9858 26.536H13.8316C12.5152 26.536 11.4468 25.4676 11.4468 24.1513V16.997C11.4468 16.491 11.6478 16.0058 12.0056 15.648C12.3634 15.2902 12.8486 15.0892 13.3546 15.0892C13.8606 15.0892 14.3458 15.2902 14.7036 15.648C15.0614 16.0058 15.2624 16.491 15.2624 16.997V20.0228L27.8272 7.458H24.8014C24.2954 7.458 23.8102 7.257 23.4524 6.89922C23.0946 6.54143 22.8936 6.05618 22.8936 5.5502C22.8936 5.04422 23.0946 4.55896 23.4524 4.20118C23.8102 3.84339 24.2954 3.6424 24.8014 3.6424H31.9557Z" fill="url(#paint0_linear_509_1742)"/>
<path d="M44.5577 32.5205V8.30246H47.4903V19.0871H60.4034V8.30246H63.3361V32.5205H60.4034V21.6886H47.4903V32.5205H44.5577ZM68.8289 32.5205V14.357H71.6197V32.5205H68.8289ZM70.2479 11.3297C69.704 11.3297 69.2349 11.1445 68.8407 10.7739C68.4544 10.4034 68.2613 9.958 68.2613 9.43769C68.2613 8.91738 68.4544 8.47196 68.8407 8.10144C69.2349 7.73091 69.704 7.54565 70.2479 7.54565C70.7919 7.54565 71.257 7.73091 71.6433 8.10144C72.0375 8.47196 72.2346 8.91738 72.2346 9.43769C72.2346 9.958 72.0375 10.4034 71.6433 10.7739C71.257 11.1445 70.7919 11.3297 70.2479 11.3297ZM76.7311 32.5205V14.357H79.4273V17.1004H79.6165C79.9476 16.2017 80.5467 15.4725 81.4139 14.9128C82.2811 14.353 83.2586 14.0732 84.3466 14.0732C84.5515 14.0732 84.8077 14.0771 85.1152 14.085C85.4226 14.0929 85.6552 14.1047 85.8129 14.1205V16.9585C85.7183 16.9349 85.5015 16.8994 85.1625 16.8521C84.8314 16.7969 84.4806 16.7693 84.11 16.7693C83.2271 16.7693 82.4387 16.9546 81.745 17.3251C81.0591 17.6877 80.5152 18.1923 80.1131 18.8387C79.7189 19.4773 79.5219 20.2065 79.5219 21.0264V32.5205H76.7311ZM96.1836 32.8989C94.4335 32.8989 92.9238 32.5126 91.6545 31.74C90.3932 30.9596 89.4196 29.8717 88.7337 28.4763C88.0557 27.073 87.7167 25.4411 87.7167 23.5806C87.7167 21.7201 88.0557 20.0804 88.7337 18.6614C89.4196 17.2344 90.3735 16.1229 91.5954 15.3266C92.8252 14.5225 94.26 14.1205 95.8998 14.1205C96.8458 14.1205 97.78 14.2781 98.7024 14.5935C99.6247 14.9088 100.464 15.4212 101.221 16.1308C101.978 16.8324 102.581 17.7626 103.03 18.9215C103.48 20.0804 103.704 21.5073 103.704 23.2022V24.3848H89.7034V21.9724H100.866C100.866 20.9476 100.661 20.0331 100.251 19.229C99.8494 18.4248 99.2739 17.7902 98.525 17.3251C97.7839 16.86 96.9089 16.6274 95.8998 16.6274C94.7882 16.6274 93.8264 16.9033 93.0144 17.4552C92.2103 17.9991 91.5915 18.7087 91.1579 19.5837C90.7243 20.4588 90.5075 21.3969 90.5075 22.3981V24.0064C90.5075 25.3781 90.744 26.5409 91.217 27.4948C91.6979 28.4408 92.364 29.1621 93.2155 29.6588C94.0669 30.1476 95.0563 30.392 96.1836 30.392C96.9168 30.392 97.579 30.2895 98.1702 30.0845C98.7694 29.8717 99.2857 29.5563 99.7193 29.1385C100.153 28.7128 100.488 28.1846 100.724 27.5539L103.421 28.3107C103.137 29.2252 102.66 30.0293 101.99 30.7231C101.32 31.4089 100.492 31.945 99.5065 32.3313C98.521 32.7097 97.4134 32.8989 96.1836 32.8989ZM127.84 8.30246V32.5205H122.873L113.236 18.5431H113.082V32.5205H107.228V8.30246H112.266L121.797 22.2562H121.998V8.30246H127.84ZM137.445 8.30246L141.867 15.9534H142.057L146.526 8.30246H153.078L145.77 20.4115L153.314 32.5205H146.597L142.057 24.7868H141.867L137.326 32.5205H130.657L138.166 20.4115L130.846 8.30246H137.445ZM155.313 13.0562V8.30246H175.782V13.0562H168.439V32.5205H162.668V13.0562H155.313Z" fill="url(#paint1_linear_509_1742)"/>
<defs>
<linearGradient id="paint0_linear_509_1742" x1="17.1712" y1="3.6424" x2="17.1712" y2="37.9828" gradientUnits="userSpaceOnUse">
<stop stop-color="#00FFB2"/>
<stop offset="1" stop-color="#01D9A9"/>
</linearGradient>
<linearGradient id="paint1_linear_509_1742" x1="109.625" y1="0.520508" x2="109.625" y2="40.5205" gradientUnits="userSpaceOnUse">
<stop stop-color="#00FFB2"/>
<stop offset="1" stop-color="#01D9A9"/>
</linearGradient>
</defs>
</svg>
